<?xml version="1.0" encoding="UTF-8"?>
<svg xmlns="http://www.w3.org/2000/svg" xmlns:xlink="http://www.w3.org/1999/xlink" width="60px" height="60px" viewBox="0 0 60 60" version="1.1">
<g id="surface1">
<path style=" stroke:none;fill-rule:nonzero;fill:rgb(0%,0%,0%);fill-opacity:1;" d="M 29.867188 19.035156 C 29.648438 19.316406 28.933594 20.867188 28.449219 22.082031 C 28.132812 22.898438 27.984375 23.101562 27.648438 23.132812 C 27.332031 23.167969 27.167969 23.332031 27 23.800781 C 26.464844 25.332031 26.535156 25.234375 26.183594 24.933594 C 25.882812 24.667969 25.851562 24.683594 25.265625 25.351562 C 24.949219 25.734375 24.632812 26.285156 24.582031 26.566406 C 24.535156 26.851562 24.449219 27.449219 24.367188 27.917969 C 24.25 28.734375 24.234375 28.75 23.617188 28.832031 C 23.050781 28.898438 22.882812 29.066406 21.984375 30.316406 C 21.449219 31.082031 21.035156 31.75 21.082031 31.800781 C 21.214844 31.933594 23 30.785156 23 30.550781 C 23 30.082031 23.417969 30.183594 24.785156 30.984375 C 25.582031 31.449219 26.265625 31.800781 26.285156 31.765625 C 26.398438 31.667969 25.816406 29.332031 25.648438 29.234375 C 25.566406 29.183594 25.535156 29.082031 25.582031 29 C 25.632812 28.917969 25.582031 28.449219 25.449219 27.964844 C 25.234375 27.132812 25.300781 26.132812 25.582031 25.867188 C 25.785156 25.667969 26.648438 26.851562 26.699219 27.382812 C 26.734375 27.714844 26.949219 28.050781 27.367188 28.382812 C 27.714844 28.667969 28.050781 28.851562 28.101562 28.785156 C 28.285156 28.617188 27.683594 27.832031 27.367188 27.832031 C 27.148438 27.832031 27.132812 27.800781 27.300781 27.683594 C 27.484375 27.566406 27.5 27.332031 27.316406 26.316406 C 27.132812 25.148438 27.132812 25.035156 27.484375 24.367188 C 27.800781 23.734375 27.898438 23.667969 28.464844 23.667969 L 29.101562 23.667969 L 29.417969 22.367188 C 29.582031 21.667969 29.816406 20.816406 29.933594 20.5 L 30.148438 19.917969 L 30.148438 20.667969 C 30.148438 21.082031 30.050781 22.132812 29.917969 23 L 29.667969 24.582031 L 30.167969 25 L 30.648438 25.417969 L 30.148438 27.464844 C 29.867188 28.601562 29.683594 29.566406 29.734375 29.617188 C 29.785156 29.667969 31.015625 28.949219 32.484375 28.015625 C 33.949219 27.101562 35.199219 26.332031 35.25 26.332031 C 35.300781 26.332031 35.332031 26.535156 35.332031 26.785156 C 35.332031 27.132812 35.117188 27.449219 34.464844 28.035156 C 33.984375 28.464844 33.667969 28.816406 33.765625 28.832031 C 33.867188 28.832031 34.148438 28.648438 34.382812 28.433594 C 34.601562 28.214844 34.933594 28 35.101562 27.964844 C 35.285156 27.917969 35.550781 27.816406 35.714844 27.75 C 36.183594 27.550781 36.082031 28.484375 35.566406 29.015625 C 35.332031 29.25 35.117188 29.699219 35.082031 29.984375 C 35.015625 30.5 35.035156 30.515625 35.5 30.417969 L 35.964844 30.316406 L 35.484375 31.582031 C 35.199219 32.300781 35 32.898438 35.035156 32.933594 C 35.066406 32.964844 35.765625 32.648438 36.566406 32.234375 C 38.015625 31.464844 38.332031 31.417969 39.214844 31.75 C 39.765625 31.964844 39.5 31.484375 38.515625 30.449219 C 37.683594 29.566406 37.484375 29.214844 37.148438 28.167969 C 36.734375 26.785156 35.734375 25.5 35.066406 25.5 C 34.800781 25.5 34.535156 25.199219 33.984375 24.25 C 33.515625 23.464844 33.148438 23 32.964844 23 C 32.765625 23 32.398438 22.464844 31.832031 21.332031 C 30.964844 19.667969 30.417969 18.832031 30.167969 18.832031 C 30.101562 18.832031 29.964844 18.933594 29.867188 19.035156 Z M 36.167969 32 C 36.167969 32.082031 36.101562 32.167969 36 32.167969 C 35.917969 32.167969 35.832031 32.082031 35.832031 32 C 35.832031 31.898438 35.917969 31.832031 36 31.832031 C 36.101562 31.832031 36.167969 31.898438 36.167969 32 Z M 36.167969 32 "/>
<path style=" stroke:none;fill-rule:nonzero;fill:rgb(0%,0%,0%);fill-opacity:1;" d="M 22.214844 23.25 C 21.433594 23.734375 20.832031 24.765625 20.832031 25.699219 C 20.832031 27.035156 22.199219 28.535156 23.214844 28.265625 C 23.667969 28.167969 23.917969 27.601562 24.050781 26.351562 C 24.132812 25.648438 25.484375 23.867188 25.683594 24.183594 C 25.75 24.316406 25.867188 24.351562 25.949219 24.285156 C 26.351562 23.867188 24.683594 22.832031 23.582031 22.832031 C 23.167969 22.832031 22.648438 23 22.214844 23.25 Z M 22.214844 23.25 "/>
<path style=" stroke:none;fill-rule:nonzero;fill:rgb(0%,0%,0%);fill-opacity:1;" d="M 19.285156 30.382812 C 19.234375 30.75 18.984375 31.285156 18.75 31.582031 C 18.25 32.25 18.214844 32.398438 18.648438 32.167969 C 19.101562 31.933594 19.167969 31.949219 19.167969 32.285156 C 19.167969 32.433594 18.933594 32.816406 18.632812 33.117188 C 18.066406 33.699219 18.082031 33.984375 18.648438 33.667969 C 19.214844 33.367188 19.082031 33.898438 18.417969 34.648438 C 18.101562 35 17.832031 35.332031 17.832031 35.398438 C 17.832031 35.601562 18.464844 35.5 18.667969 35.25 C 18.785156 35.117188 18.933594 35 19.015625 35 C 19.351562 35 19.132812 35.449219 18.464844 36.117188 C 17.714844 36.882812 17.714844 37.199219 18.449219 36.816406 C 18.714844 36.699219 18.964844 36.566406 19.050781 36.535156 C 19.117188 36.5 19.167969 36.582031 19.167969 36.734375 C 19.167969 36.867188 18.867188 37.265625 18.5 37.601562 C 17.699219 38.351562 17.667969 38.535156 18.367188 38.316406 C 19.050781 38.132812 19 38.132812 19 38.382812 C 19 38.5 18.734375 38.851562 18.417969 39.167969 C 18.101562 39.484375 17.832031 39.800781 17.832031 39.867188 C 17.832031 40.101562 18.550781 40 18.867188 39.714844 C 19.148438 39.464844 19.167969 39.464844 19.167969 39.882812 L 19.167969 40.332031 L 17.566406 40.332031 C 16.183594 40.332031 15.984375 40.300781 16.167969 40.082031 C 16.265625 39.949219 16.300781 39.75 16.234375 39.648438 C 16.167969 39.535156 16.183594 39.5 16.300781 39.566406 C 16.484375 39.683594 17.332031 38.398438 17.332031 38 C 17.332031 37.648438 16.867188 38.117188 15.785156 39.582031 L 14.800781 40.917969 L 15.265625 41 C 15.949219 41.132812 44.617188 41.101562 44.75 40.964844 C 44.917969 40.816406 44.382812 39.882812 43.683594 39.101562 C 43.332031 38.734375 42.632812 37.800781 42.101562 37.050781 C 41.515625 36.183594 41 35.632812 40.75 35.566406 C 40.515625 35.515625 40.199219 35.167969 39.933594 34.648438 C 39.683594 34.199219 39.398438 33.832031 39.316406 33.832031 C 39.066406 33.832031 38.550781 34.132812 37.714844 34.765625 C 37.066406 35.25 36.898438 35.316406 36.285156 35.234375 C 35.417969 35.117188 34.449219 35.484375 33.949219 36.101562 C 33.648438 36.5 32.75 37 32.367188 37 C 32.214844 37 31.832031 35.050781 31.832031 34.214844 C 31.832031 33.851562 31.699219 33.699219 31.300781 33.5 C 30.949219 33.332031 30.714844 33.082031 30.648438 32.785156 C 30.582031 32.515625 30.417969 32.199219 30.300781 32.050781 C 30.183594 31.898438 30.082031 31.515625 30.082031 31.183594 C 30.082031 30.648438 30.035156 30.582031 29.667969 30.582031 C 29.316406 30.582031 29.25 30.667969 29.25 31.082031 C 29.234375 31.464844 29.148438 31.601562 28.882812 31.632812 C 28.332031 31.714844 28.132812 32.082031 28.050781 33.199219 C 27.984375 34.082031 28.015625 34.316406 28.300781 34.632812 C 28.632812 35.015625 28.667969 35.484375 28.417969 37.433594 C 28.351562 38.101562 27.601562 39.699219 27.214844 40.035156 C 26.917969 40.300781 26.148438 40.398438 24.464844 40.351562 L 23.5 40.332031 L 23.5 38.949219 L 23.882812 39.300781 C 24.265625 39.667969 24.667969 39.785156 24.667969 39.535156 C 24.667969 39.449219 24.398438 39.082031 24.082031 38.714844 C 23.398438 37.898438 23.234375 37.199219 23.882812 37.800781 C 24.25 38.148438 24.667969 38.285156 24.667969 38.066406 C 24.667969 38 24.367188 37.632812 24 37.234375 C 23.367188 36.535156 23.183594 36.167969 23.464844 36.167969 C 23.535156 36.167969 23.683594 36.25 23.785156 36.351562 C 23.882812 36.449219 24.082031 36.5 24.234375 36.464844 C 24.433594 36.433594 24.367188 36.285156 23.917969 35.800781 C 23.101562 34.933594 23.148438 34.382812 24.015625 34.832031 C 24.449219 35.082031 24.417969 34.917969 23.851562 34.199219 C 23.582031 33.867188 23.300781 33.285156 23.199219 32.917969 C 23.050781 32.285156 23.035156 32.285156 23.015625 32.765625 C 23 33.035156 22.785156 33.617188 22.5 34.050781 C 21.917969 34.984375 21.898438 35.066406 22.316406 34.832031 C 22.75 34.617188 22.832031 34.617188 22.832031 34.882812 C 22.832031 35 22.617188 35.316406 22.332031 35.582031 C 22.066406 35.851562 21.832031 36.132812 21.832031 36.214844 C 21.832031 36.300781 22.066406 36.316406 22.332031 36.25 C 23 36.101562 22.964844 36.300781 22.167969 37.214844 C 21.800781 37.632812 21.5 38.015625 21.5 38.066406 C 21.5 38.285156 21.964844 38.148438 22.25 37.832031 C 22.417969 37.648438 22.617188 37.5 22.699219 37.5 C 23.035156 37.5 22.785156 38.066406 22.148438 38.75 C 21.382812 39.566406 21.398438 39.898438 22.148438 39.449219 C 22.816406 39.066406 22.867188 39.082031 22.800781 39.699219 L 22.75 40.25 L 21.214844 40.300781 L 19.667969 40.351562 L 19.667969 39.917969 C 19.667969 39.433594 19.800781 39.398438 20.265625 39.75 C 20.964844 40.285156 21.035156 39.964844 20.367188 39.285156 C 19.984375 38.898438 19.667969 38.484375 19.667969 38.367188 C 19.667969 38.117188 19.667969 38.117188 20.398438 38.417969 C 20.734375 38.550781 21 38.617188 21 38.566406 C 21 38.5 20.699219 38.132812 20.332031 37.734375 C 19.964844 37.332031 19.667969 36.898438 19.667969 36.75 C 19.667969 36.417969 19.75 36.433594 20.332031 36.867188 C 21.101562 37.433594 21.117188 37.101562 20.351562 36.117188 C 19.535156 35.050781 19.449219 34.617188 20.183594 35.234375 C 21.183594 36.082031 21.285156 35.699219 20.332031 34.617188 C 19.714844 33.917969 19.5 33.5 19.785156 33.5 C 19.832031 33.5 20.015625 33.617188 20.183594 33.765625 C 20.785156 34.300781 20.832031 33.898438 20.25 33.214844 C 19.433594 32.25 19.484375 31.714844 20.367188 32.183594 C 20.765625 32.398438 20.683594 32.167969 20.132812 31.566406 C 19.964844 31.382812 19.734375 30.898438 19.617188 30.484375 L 19.398438 29.75 Z M 31.433594 34.433594 C 31.601562 34.648438 32.066406 37 31.964844 37.082031 C 31.933594 37.101562 31.699219 37.167969 31.433594 37.234375 C 31.050781 37.332031 30.984375 37.300781 31.050781 37.101562 C 31.117188 36.949219 31.199219 36.464844 31.265625 36.015625 C 31.382812 35.167969 31.367188 35.148438 30.367188 34.566406 C 30.351562 34.566406 30.367188 34.417969 30.433594 34.265625 C 30.550781 33.949219 31.132812 34.050781 31.433594 34.433594 Z M 30.535156 36.132812 C 30.382812 36.25 30.214844 36.683594 30.167969 37.117188 C 30.101562 37.800781 30.015625 37.917969 29.617188 38.015625 C 29.214844 38.132812 29.148438 38.101562 29.25 37.867188 C 29.316406 37.714844 29.464844 37.132812 29.566406 36.582031 C 29.734375 35.832031 29.851562 35.601562 30.050781 35.632812 C 30.183594 35.648438 30.367188 35.582031 30.433594 35.464844 C 30.515625 35.332031 30.601562 35.367188 30.683594 35.601562 C 30.75 35.800781 30.699219 35.984375 30.535156 36.132812 Z M 42.816406 38.898438 C 42.382812 39.101562 42.265625 38.949219 42.515625 38.535156 C 42.714844 38.214844 42.75 38.214844 42.933594 38.464844 C 43.117188 38.699219 43.101562 38.765625 42.816406 38.898438 Z M 38.984375 39.265625 C 39 39.285156 39 39.398438 38.964844 39.5 C 38.933594 39.632812 38.75 39.566406 38.5 39.332031 L 38.082031 38.984375 L 38.5 39.101562 C 38.734375 39.148438 38.949219 39.234375 38.984375 39.265625 Z M 19.5 40.667969 C 19.5 40.75 19.417969 40.832031 19.316406 40.832031 C 19.234375 40.832031 19.199219 40.75 19.25 40.667969 C 19.300781 40.566406 19.382812 40.5 19.433594 40.5 C 19.464844 40.5 19.5 40.566406 19.5 40.667969 Z M 19.5 40.667969 "/>
<path style=" stroke:none;fill-rule:nonzero;fill:rgb(0%,0%,0%);fill-opacity:1;" d="M 31.765625 30.285156 C 31.566406 30.484375 31.667969 30.582031 32.082031 30.601562 C 32.316406 30.617188 32.5 30.601562 32.5 30.566406 C 32.5 30.433594 31.867188 30.183594 31.765625 30.285156 Z M 31.765625 30.285156 "/>
<path style=" stroke:none;fill-rule:nonzero;fill:rgb(0%,0%,0%);fill-opacity:1;" d="M 25.398438 33.449219 C 25.464844 33.714844 25.515625 34.035156 25.515625 34.167969 C 25.535156 34.433594 26.632812 35.082031 26.800781 34.917969 C 26.851562 34.867188 26.714844 34.648438 26.5 34.417969 C 26.285156 34.183594 26.167969 34 26.214844 34 C 26.285156 34 26.183594 33.851562 26 33.667969 C 25.816406 33.484375 25.667969 33.25 25.667969 33.167969 C 25.667969 33.066406 25.582031 33 25.484375 33 C 25.367188 33 25.332031 33.167969 25.398438 33.449219 Z M 25.398438 33.449219 "/>
</g>
</svg>
